<?xml version="1.0" encoding="UTF-8"?>
<svg id="Layer_2" data-name="Layer 2" xmlns="http://www.w3.org/2000/svg" xmlns:xlink="http://www.w3.org/1999/xlink" viewBox="0 0 198.52 89.13">
  <defs>
    <style>
      .cls-1 {
        fill: url(#linear-gradient);
      }

      .cls-1, .cls-2, .cls-3 {
        stroke-width: 0px;
      }

      .cls-2 {
        fill: url(#linear-gradient-2);
      }

      .cls-3 {
        fill: #fff;
      }
    </style>
    <linearGradient id="linear-gradient" x1="1.42" y1="32.38" x2="41.88" y2="32.38" gradientUnits="userSpaceOnUse">
      <stop offset="0" stop-color="#0ae0e7"/>
      <stop offset="1" stop-color="#4712fd"/>
    </linearGradient>
    <linearGradient id="linear-gradient-2" x1="0" y1="55.5" x2="40.46" y2="55.5" gradientUnits="userSpaceOnUse">
      <stop offset="0" stop-color="#5b00fb"/>
      <stop offset="1" stop-color="#d400d6"/>
    </linearGradient>
  </defs>
  <g id="Layer_1-2" data-name="Layer 1">
    <g>
      <g>
        <g>
          <path class="cls-3" d="M66.28,14.91h7.1v2.85c2.68-3.38,6-3.67,7.51-3.67,5.3,0,7.34,3.32,7.98,4.6,1.22-1.98,3.73-4.6,8.09-4.6,3.9,0,5.82,1.8,6.81,3.08,1.63,2.15,1.75,4.31,1.75,7.1v15.84h-7.1v-13.74c0-2.97-.64-4.31-1.16-4.95-.93-1.16-2.21-1.28-2.91-1.28-1.92,0-3.15.87-3.9,2.21-.93,1.51-.99,3.55-.99,4.89v12.87h-7.1v-13.74c0-2.97-.64-4.31-1.16-4.95-.93-1.16-2.21-1.28-2.91-1.28-1.92,0-3.15.87-3.9,2.21-.93,1.51-.99,3.55-.99,4.89v12.87h-7.1V14.91Z"/>
          <path class="cls-3" d="M115.86,0c2.33,0,4.25,1.92,4.25,4.25s-1.92,4.25-4.25,4.25-4.25-1.92-4.25-4.25,1.92-4.25,4.25-4.25ZM119.41,14.91v25.21h-7.1V14.91h7.1Z"/>
          <path class="cls-3" d="M145.16,22.59c-1.51-1.4-3.38-2.21-5.82-2.21-4.72,0-7.1,3.44-7.1,7.1,0,4.13,3.09,7.16,7.34,7.16,1.57,0,3.67-.46,5.59-2.21v6.93c-1.4.7-3.61,1.57-6.52,1.57-3.96,0-7.45-1.51-9.72-3.67-1.92-1.8-4.02-4.95-4.02-9.67,0-4.43,1.81-7.98,4.37-10.25,3.09-2.74,6.64-3.26,9.08-3.26,2.62,0,4.77.52,6.81,1.51v6.99Z"/>
          <path class="cls-3" d="M194.27,17.64c2.5,2.27,4.25,5.77,4.25,9.9s-1.75,7.57-4.25,9.84c-2.15,1.98-5.41,3.55-10.19,3.55s-8.04-1.57-10.19-3.55c-2.5-2.27-4.25-5.77-4.25-9.84s1.75-7.63,4.25-9.9c2.15-1.98,5.42-3.55,10.19-3.55s8.03,1.57,10.19,3.55ZM191.18,27.54c0-3.96-3.03-7.16-7.1-7.16s-7.1,3.2-7.1,7.16,2.97,7.1,7.1,7.1,7.1-3.26,7.1-7.1Z"/>
          <path class="cls-3" d="M62.38,48.19l6.64,14.21,6.64-14.21h7.92l-12.69,25.21h-3.73l-12.69-25.21h7.92Z"/>
          <path class="cls-3" d="M105.83,48.19h7.1v25.21h-7.1v-3.26c-2.56,3.67-5.94,4.08-7.74,4.08-7.75,0-12.87-6.06-12.87-13.45s5.07-13.39,12.52-13.39c1.92,0,5.71.35,8.09,4.08v-3.26ZM92.55,60.77c0,4.02,2.91,7.16,6.99,7.16s6.99-3.14,6.99-7.16-2.91-7.1-6.99-7.1-6.99,3.09-6.99,7.1Z"/>
          <path class="cls-3" d="M126.81,48.19v14.27c0,1.34.12,3.15,1.51,4.43.87.76,2.27,1.28,3.61,1.28s2.74-.52,3.61-1.28c1.4-1.28,1.51-3.09,1.51-4.43v-14.27h7.1v15.43c0,2.27-.29,5.3-3.09,7.75-2.33,2.04-6.05,2.85-9.14,2.85s-6.81-.82-9.14-2.85c-2.8-2.44-3.08-5.47-3.08-7.75v-15.43h7.1Z"/>
        </g>
        <path class="cls-3" d="M184.13,52.52v-6.71h-7.09v6.71h-8.37v6.02h8.37v13.01c0,4.95-3.34,9.65-8.24,10.38-5.99.89-11.18-3.78-11.18-9.6v-32.21h0v-12.11c0-1.75.06-3.9,1.4-5.59,1.4-1.75,3.38-2.04,4.72-2.04,1.46,0,2.39.06,3.32.7l-.1-6.68c-.56-.19-1.15-.28-2-.32-1.69-.08-3.09.41-4.19,1.1-.52.29-2.04,1.34-3.15,3.49v-3.79h-6.86c-.13,0-.24.11-.24.24v24.97h0v32.21c.05,1.62.33,3.54.83,5.39,2.28,6.65,8.59,11.41,15.97,11.41s13.69-4.76,15.97-11.41c.53-2.13.8-4.27.83-6.26v-12.91h4.9v-6.02h-4.9Z"/>
      </g>
      <path class="cls-1" d="M36.1,29.51v-6.44h-5.78v-6.29h-5.78v12.66H1.42v6.29h23.12v12.24h5.78v-6.02h5.78v-6.15h5.78v-6.29h-5.78ZM26.01,18.38h2.85v3.1h-2.85v-3.1ZM5.74,34.14h-2.85v-3.1h2.85v3.1ZM11.52,34.14h-2.85v-3.1h2.85v3.1ZM17.3,34.14h-2.85v-3.1h2.85v3.1ZM23.08,34.14h-2.85v-3.1h2.85v3.1ZM28.86,46.38h-2.85v-3.1h2.85v3.1ZM34.64,34.06h-2.85v-3.1h2.85v3.1ZM31.79,24.67h2.85v3.1h-2.85v-3.1ZM28.86,24.67v3.1h-2.85v-3.1h2.85ZM28.86,37.26v3.1h-2.85v-3.1h2.85ZM28.86,34.06h-2.85v-3.1h2.85v3.1ZM34.64,40.36h-2.85v-3.1h2.85v3.1ZM40.42,34.21h-2.85v-3.1h2.85v3.1Z"/>
      <path class="cls-2" d="M34.68,52.57h-17.34v-12.66h-5.78v6.29h-5.78v6.44H0v6.29h5.78v6.15h5.78v6.02h5.78v-12.24h23.12v-6.29h-5.78ZM13.03,41.5h2.85v3.1h-2.85v-3.1ZM4.31,57.34H1.47v-3.1h2.85v3.1ZM15.87,69.51h-2.85v-3.1h2.85v3.1ZM15.87,60.38v3.1h-2.85v-3.1h2.85ZM7.25,57.19v-3.1h2.85v3.1h-2.85ZM15.87,57.19h-2.85v-3.1h2.85v3.1ZM13.03,50.9v-3.1h2.85v3.1h-2.85ZM7.25,47.8h2.85v3.1h-2.85v-3.1ZM10.09,63.48h-2.85v-3.1h2.85v3.1ZM21.65,57.26h-2.85v-3.1h2.85v3.1ZM27.43,57.26h-2.85v-3.1h2.85v3.1ZM33.21,57.26h-2.85v-3.1h2.85v3.1ZM38.99,57.26h-2.85v-3.1h2.85v3.1Z"/>
    </g>
  </g>
</svg>